<svg width="40" height="40" viewBox="0 0 40 40" fill="none" xmlns="http://www.w3.org/2000/svg">
<path d="M22.9833 14.4832C22.9833 14.4832 21.2833 12.9832 18.3 14.0332C15.55 14.9832 15.6833 18.7499 19.85 19.7499" stroke="#323232" stroke-width="2" stroke-miterlimit="10" stroke-linecap="round" stroke-linejoin="round"/>
<path d="M16.45 24.9498C16.45 24.9498 18.15 26.4498 21.1333 25.3998C23.9 24.4332 23.7666 20.6665 19.5833 19.6665" stroke="#323232" stroke-width="2" stroke-miterlimit="10" stroke-linecap="round" stroke-linejoin="round"/>
<path d="M20.0167 13.6666V11.2166" stroke="#323232" stroke-width="2" stroke-miterlimit="10" stroke-linecap="round" stroke-linejoin="round"/>
<path d="M20.0167 28.2166V25.7666" stroke="#323232" stroke-width="2" stroke-miterlimit="10" stroke-linecap="round" stroke-linejoin="round"/>
<path d="M19.7167 35.0999C28.2127 35.0999 35.1 28.2126 35.1 19.7166C35.1 11.2206 28.2127 4.33325 19.7167 4.33325C11.2207 4.33325 4.33334 11.2206 4.33334 19.7166C4.33334 28.2126 11.2207 35.0999 19.7167 35.0999Z" stroke="#323232" stroke-width="2" stroke-miterlimit="10" stroke-linecap="round" stroke-linejoin="round"/>
</svg>
