<svg width="40" height="40" viewBox="0 0 40 40" fill="none" xmlns="http://www.w3.org/2000/svg">
<path d="M30.65 16.65C30.65 23.5667 23.9 31.8833 21.15 34.9833C20.5333 35.6667 19.4666 35.6667 18.85 34.9833C16.1 31.8833 9.34998 23.5667 9.34998 16.65C9.34998 10.7667 14.1166 6 20 6C25.8833 6 30.65 10.7667 30.65 16.65Z" stroke="#323232" stroke-width="2" stroke-miterlimit="10" stroke-linecap="round" stroke-linejoin="round"/>
<path d="M19.9832 20.9166C22.3396 20.9166 24.2499 19.0064 24.2499 16.65C24.2499 14.2936 22.3396 12.3833 19.9832 12.3833C17.6268 12.3833 15.7166 14.2936 15.7166 16.65C15.7166 19.0064 17.6268 20.9166 19.9832 20.9166Z" stroke="#323232" stroke-width="2" stroke-miterlimit="10" stroke-linecap="round" stroke-linejoin="round"/>
</svg>
