<svg width="129" height="19" viewBox="0 0 129 19" fill="none" xmlns="http://www.w3.org/2000/svg">
<path d="M13.672 6.792C13.672 9.48 12.608 11.216 10.48 12L14.728 18H10.12L6.4 12.648H3.808V18H0.0640001V1.224H6.424C9.032 1.224 10.888 1.664 11.992 2.544C13.112 3.424 13.672 4.84 13.672 6.792ZM6.544 9.408C7.824 9.408 8.696 9.2 9.16 8.784C9.624 8.368 9.856 7.712 9.856 6.816C9.856 5.904 9.616 5.28 9.136 4.944C8.656 4.608 7.816 4.44 6.616 4.44H3.808V9.408H6.544ZM17.5015 1.224H21.2455V18H17.5015V1.224ZM37.3285 18L35.7685 14.376H28.7365L27.1765 18H23.1925L30.4405 1.224H34.0645L41.3125 18H37.3285ZM32.2645 6.216L30.1525 11.088H34.3525L32.2645 6.216ZM50.6033 18H43.2593V1.224H49.7873C50.9233 1.224 51.8993 1.36 52.7153 1.632C53.5473 1.904 54.1713 2.272 54.5873 2.736C55.3393 3.6 55.7153 4.576 55.7153 5.664C55.7153 6.976 55.2913 7.952 54.4433 8.592C54.1553 8.816 53.9553 8.96 53.8433 9.024C53.7313 9.072 53.5313 9.16 53.2433 9.288C54.2833 9.512 55.1073 9.984 55.7153 10.704C56.3393 11.408 56.6513 12.288 56.6513 13.344C56.6513 14.512 56.2513 15.544 55.4513 16.44C54.5233 17.48 52.9073 18 50.6033 18ZM47.0033 8.016H48.7793C49.8193 8.016 50.5873 7.904 51.0833 7.68C51.5953 7.456 51.8513 6.976 51.8513 6.24C51.8513 5.488 51.6193 4.992 51.1553 4.752C50.6913 4.512 49.9073 4.392 48.8033 4.392H47.0033V8.016ZM47.0033 14.832H49.5713C50.6433 14.832 51.4433 14.704 51.9713 14.448C52.5153 14.176 52.7873 13.656 52.7873 12.888C52.7873 12.104 52.4993 11.592 51.9233 11.352C51.3633 11.096 50.4593 10.968 49.2113 10.968H47.0033V14.832ZM64.2462 13.68C64.8702 14.448 65.7102 14.832 66.7662 14.832C67.8222 14.832 68.6542 14.448 69.2622 13.68C69.8862 12.896 70.1982 11.832 70.1982 10.488V1.224H73.9422V10.608C73.9422 13.04 73.2702 14.912 71.9262 16.224C70.5822 17.52 68.8622 18.168 66.7662 18.168C64.6702 18.168 62.9422 17.512 61.5822 16.2C60.2382 14.888 59.5662 13.024 59.5662 10.608V1.224H63.3102V10.488C63.3102 11.832 63.6222 12.896 64.2462 13.68ZM83.2296 4.128C82.6056 4.128 82.1096 4.28 81.7416 4.584C81.3896 4.872 81.2136 5.264 81.2136 5.76C81.2136 6.24 81.4296 6.624 81.8616 6.912C82.3096 7.2 83.3256 7.544 84.9096 7.944C86.5096 8.328 87.7496 8.912 88.6296 9.696C89.5096 10.48 89.9496 11.624 89.9496 13.128C89.9496 14.632 89.3816 15.856 88.2456 16.8C87.1256 17.728 85.6456 18.192 83.8056 18.192C81.1496 18.192 78.7576 17.208 76.6296 15.24L78.8616 12.504C80.6696 14.088 82.3416 14.88 83.8776 14.88C84.5656 14.88 85.1016 14.736 85.4856 14.448C85.8856 14.144 86.0856 13.744 86.0856 13.248C86.0856 12.736 85.8776 12.336 85.4616 12.048C85.0456 11.744 84.2216 11.44 82.9896 11.136C81.0376 10.672 79.6056 10.072 78.6936 9.336C77.7976 8.584 77.3496 7.416 77.3496 5.832C77.3496 4.232 77.9176 3 79.0536 2.136C80.2056 1.272 81.6376 0.839999 83.3496 0.839999C84.4696 0.839999 85.5896 1.032 86.7096 1.416C87.8296 1.8 88.8056 2.344 89.6376 3.048L87.7416 5.784C86.2856 4.68 84.7816 4.128 83.2296 4.128ZM104.87 1.224H108.614V18H104.87L96.8783 7.488V18H93.1343V1.224H96.6383L104.87 12.024V1.224ZM124.704 18L123.144 14.376H116.112L114.552 18H110.567L117.816 1.224H121.44L128.688 18H124.704ZM119.64 6.216L117.528 11.088H121.728L119.64 6.216Z" fill="white"/>
</svg>
